<svg xmlns="http://www.w3.org/2000/svg" width="200" height="80" viewBox="0 0 200 80"><path fill="#fff" d="M70.293 30.11c0 19.412-15.736 35.148-35.146 35.148C15.734 65.258 0 49.52 0 30.11c0-19.41 70.293-19.41 70.293 0zm-66.438-.598c0 17.28 62.58 17.28 62.58 0 0-17.283-62.58-17.283-62.58 0zM54.62 59.205h-2.14v-31.35c0-3.293-.92-5.926-2.768-7.902-1.994-2.12-4.446-3.182-7.352-3.182-2.504 0-4.855.998-7.05 2.99-1.335-1.114-2.552-1.896-3.647-2.343-1.098-.448-2.35-.672-3.76-.672-2.926 0-5.34.978-7.24 2.935-1.904 1.958-2.853 4.445-2.853 7.46v32.064h-2.14V26.4c0-2.926 1.023-5.494 3.073-7.707 2.395-2.597 5.53-3.894 9.41-3.894 1.353 0 2.518.15 3.496.452.977.302 2.2.89 3.66 1.77 2.288-1.518 4.612-2.278 6.97-2.278 2.72 0 5.24.83 7.543 2.496 1.715 1.225 2.946 2.666 3.688 4.32.74 1.656 1.11 3.8 1.11 6.435v31.21zm-4.058 0h-2.086v-31.24c0-1.993-.393-3.558-1.18-4.692-1.133-1.607-2.742-2.414-4.827-2.414-1.883 0-3.392.67-4.527 2.016-1.135 1.344-1.702 3.14-1.702 5.39v30.94h-2.163V28.32c0-4.955-2.002-7.432-6.01-7.432-2.194 0-3.87.84-5.018 2.522-.862 1.262-1.29 2.816-1.29 4.663v31.13h-2.087v-31.24c0-2.797.706-4.974 2.112-6.528.733-.8 1.675-1.458 2.83-1.96 1.15-.504 2.293-.755 3.427-.755 1.444 0 2.787.348 4.034 1.04 1.243.698 2.33 1.704 3.264 3.02 1.955-2.707 4.35-4.06 7.186-4.06 1.116 0 2.25.26 3.402.78 1.15.523 2.083 1.214 2.798 2.074 1.224 1.426 1.837 3.5 1.837 6.228v31.403zm-18.35 0h-2.116v-31.57c0-1.847-.682-2.77-2.055-2.77-1.516 0-2.277 1.088-2.277 3.264v31.075H23.65V28.1c0-1.735.385-3.07 1.155-4.002.767-.934 1.873-1.4 3.318-1.4 1.41 0 2.44.45 3.1 1.357.656.905.99 2.31.99 4.21v30.94zm14.428 0h-2.112V27.91c0-1.993-.725-2.99-2.168-2.99-1.41 0-2.112.978-2.112 2.935v31.35h-2.113V27.94c0-1.537.34-2.726 1.015-3.566.86-1.044 1.956-1.565 3.292-1.565 1.318 0 2.343.458 3.087 1.375.74.914 1.11 2.184 1.11 3.812v31.21zM120.538 22.007h37.595v4.023H144.06l-.108 5.39 13.936.03v24.387c0 2.125-1.72 3.883-3.886 3.883h-33.216V31.448H134.3l.067-5.418H120.54v-4.023zm7.085 34.606h4.17v-21.75h-4.17v21.75zm9.34-17.547h4.526v-4.202h-4.528v4.202zm0 8.424h4.526v-5.318h-4.528v5.318zm0 9.123h4.526V50.6h-4.528v6.013zm13.608-21.75h-4.173v21.75h2.987c.612 0 1.187-.533 1.187-1.19v-20.56zM176.193 55.89c0 2.124-1.552 3.884-3.395 3.884H162.53V22.042h13.663V55.89zm-4.745-29.785h-4.133v30.56h3.15c.533 0 .982-.532.982-1.145V26.105zm6.954-4.18H199.8v20.288c0 1.72-1.555 3.068-3.435 3.068h-12.72v11.454H199.8l-1.223 3.068h-20.175V21.925zm5.243 19.372h3.763V25.95h-3.763v15.347zm11.52-15.348h-3.81v15.347h2.95c.45 0 .858-.326.858-.776V25.95zM86.558 21.094l1.837 8.468H80.46l-1.84-8.468h7.938zm0 10.143l1.92 8.467h-7.935l-1.924-8.467h7.938zm1.92 10.392l-1.862 18.077h-7.783l1.71-18.078h7.936zm13.216-20.74l-1.064 3.395h15.542v24.42c0 2.168-2.25 3.928-4.907 3.928h-6.137v-2.947h2.046c.817 0 1.43-.53 1.43-1.186V27.576H99.73l-.593 1.99H91.54l2.557-8.677h7.597zm4.038 23.64c0 2.173-2.086 3.806-4.827 3.806h-3.948v8.223l19.215.054-1.198 3.096H91.46V31.77h14.272v12.76zm-4.632-9.814h-4.217V45.39h3.4c.45 0 .816-.364.816-.776v-9.898z"/></svg>