<svg xmlns="http://www.w3.org/2000/svg" width="141" height="45" viewBox="0 0 94 30" enable-background="new 0 0 94 30"><path fill="#006CB7" d="M56.482 21.007s-3.748-2.873-5.938-5.98c-2.963-4.576-7.187-2.714-8.593-.385-1.402 2.33-3.59 3.802-3.905 4.188-.313.387-4.53 2.64-3.593 6.756.934 4.112 4.22 4.03 4.22 4.03s2.424.236 5.23-.383c2.815-.62 5.236.153 5.236.153s6.564 2.177 8.36-2.014c1.796-4.188-1.016-6.365-1.016-6.365zm3.674-8.154c0-.93-.782-3.723-3.674-3.723-2.893 0-3.28 2.637-3.28 4.505 0 1.777.15 4.266 3.75 4.188 3.595-.077 3.204-4.036 3.204-4.97zm-9.61-3.257c2.427.308 3.98-2.253 4.29-4.193.317-1.938-1.246-4.187-2.965-4.58-1.72-.386-3.86 2.34-4.06 4.117-.228 2.175.32 4.348 2.735 4.656zm-7.81-.306c1.812 0 3.28-2.067 3.28-4.62 0-2.557-1.47-4.622-3.28-4.622-1.81 0-3.28 2.065-3.28 4.622 0 2.553 1.47 4.62 3.28 4.62zm-6.097 6.515c3.28-.696 2.834-4.584 2.738-5.434-.16-1.31-1.718-3.594-3.827-3.412-2.66.23-3.05 4.037-3.05 4.037-.357 1.754.864 5.51 4.14 4.81z"/><path fill="#fff" d="M43.282 25.567h-1.72S40.367 25.51 40 24.142c-.186-.607.028-1.305.125-1.577.09-.274.485-.912 1.318-1.16h1.838v4.162zm.034-8.564v2.764h-2.272s-2.273.183-3.066 2.738c-.277 1.7.24 2.703.334 2.916s.828 1.46 2.672 1.823h4.267V17.03l-1.934-.027zM46.296 20.01v5.38s.088 1.337 1.995 1.825h4.913V20.01H51.08v5.41h-2.024s-.647-.092-.765-.606v-4.836l-1.994.032z"/><path fill="#ED1C24" d="M73.645 19.888v2.484h-9.06v-2.484h9.06zm.018 6.95s-.16.377-.378.377h-8.7v-2.65h9.078v2.273zm2.93-10.354V14.21H61.51l-.02 2.306h6.48l-.604 1.376H61.85v11.372H74.95c1.373 0 1.253-1.366 1.253-1.366V17.892h-5.524l.485-1.407h5.433zM89.388 24.665l-2.17 1.134-1.99-1.135h4.16zm-7.905.032l3.798 2.176c-.3.33-1.595.746-1.595.746h-2.537v1.674h3.44c1.026-.206 2.926-1.16 2.926-1.16.79.713 2.298 1.01 2.298 1.01h3.92v-1.673h-2.956c-.795-.12-1.507-.566-1.507-.566l4.462-2.543v-1.37h-12.25v1.707zm8.36-4.366s-.21.386-.482.386h-4.448v-1.58h4.93v1.195zm2.386-2.865v-.872H89.84v.872h-4.906v-.84h-2.262v.84H81.15l.027 1.702h1.497v3.195h8.256c1.146 0 1.3-1.197 1.3-1.197v-1.998h1.745v-1.702H92.23zm1.595-3.107h-5.918v-1.152h-2.77v1.09h-6.794v15.03h2.44v-13.09h13.04V14.36zM27.95 29.185h3.286V17.917H27.95v11.268zm0-15.388v2.867h3.286v-2.867H27.95zM23.195 26.996H18.71c-.604-.243-.805-.638-.845-.737-.04-.103-.182-.46-.02-.818.364-.696.966-.856.966-.856h4.384v2.41zm-.6-9.063l-7.02-.02v2.366h6.155s1.465.356 1.465 1.275v.838H17.62s-2.19.197-2.892 2.79c-.124 1.212.04 1.812.117 2.032.085.226.73 1.652 2.637 2.014h8.875v-8.075s-.422-2.766-3.762-3.222zM10.043 19.188s-.368.662-1.333.805H3.47v-3.24h5.216s1.137-.05 1.51.842c-.002 0 .225.945-.153 1.593zm-1.15 7.26v.01H3.47V23.08h5.394l.182.033s1.028.186 1.4 1.1c0 0 .214.856-.25 1.5-.002 0-.345.585-1.303.733zm5.11-1.216c.1-2.745-2.39-3.69-2.39-3.69 2.105-1.09 1.837-3.834 1.837-3.834-.227-4.204-5.412-4.01-5.412-4.01H.025V29.36h9.047c5.317-.016 4.93-4.128 4.93-4.128z"/></svg>