<svg xmlns="http://www.w3.org/2000/svg" width="690" height="60" viewBox="0 0 690 60"><path d="M0 0h690v60H0z"/><g fill="#fff"><path d="M95.1 24.604h3.352c.234-.592.457-1.203.667-1.833h-6.072v5.037c0 2.862-.167 4.973-.5 6.332-.333 1.454-1.018 2.935-2.054 4.44-.31-.42-.655-.846-1.037-1.277.85-1.27 1.413-2.523 1.685-3.758.284-1.172.425-2.974.425-5.405v-6.72h16.18v1.35h-7c-.276.668-.544 1.28-.804 1.834h6.32v7.588h-1.387v-.368h-3.425v4.146c0 1.555-.703 2.326-2.11 2.313-.43 0-1.21-.012-2.33-.037-.05-.467-.13-1.006-.242-1.61.962.124 1.72.185 2.276.185.617 0 .926-.356.926-1.07v-3.925h-3.48v.368H95.1v-7.59zm1.593 7.943l1.277.832c-1.197 1.776-2.486 3.35-3.87 4.718-.32-.27-.72-.572-1.202-.904 1.246-1.15 2.512-2.7 3.795-4.647zm8.182-6.703H96.49v1.76h8.385v-1.76zm-8.386 4.74h8.385v-1.778H96.49v1.777zm7.423 2c1.604 1.516 2.974 2.922 4.11 4.22l-1.24 1.11c-1.186-1.506-2.506-2.986-3.963-4.443l1.093-.887zM108.52 27.12l.946-1.055c1.147.778 2.214 1.573 3.202 2.39-.458.505-.82.9-1.092 1.184-1.123-1-2.14-1.84-3.055-2.52zm.612 11.42c.74-2.218 1.376-4.606 1.907-7.16.54.234 1.04.424 1.498.573-.443 1.85-1.037 4.214-1.777 7.09l-1.628-.502zm.11-16.25l.964-.98c.814.616 1.876 1.486 3.184 2.61-.42.406-.79.77-1.11 1.09-1.273-1.197-2.284-2.104-3.037-2.72zm3.37 5.33c1.444-1.986 2.585-4.207 3.425-6.663l1.462.463c-.236.567-.468 1.11-.696 1.63h8.6c-.1 3.726-.18 6.602-.242 8.626-.062 2.418-1.073 3.627-3.035 3.627-.816 0-1.69-.006-2.63-.02-.06-.344-.16-.844-.295-1.498 1.136.073 2.056.112 2.76.112 1.146 0 1.733-.717 1.757-2.15.06-1.8.13-4.243.203-7.33h-7.756c-.42.86-.842 1.644-1.268 2.353h6.857v5.72h-5.83v2.888c0 1.22.51 1.832 1.536 1.832h5.85c1.085 0 1.696-.438 1.832-1.313.135-.765.26-1.69.37-2.776.557.223 1.05.413 1.48.573-.147 1.147-.32 2.1-.517 2.852-.333 1.357-1.29 2.037-2.87 2.037h-6.22c-1.937 0-2.906-1.038-2.906-3.11v-8.016c-.22.34-.443.66-.666.963-.346-.25-.748-.516-1.204-.8zm3.314.5v3.018h4.425V28.12h-4.424zM128.772 25.28h5.868c.358-.938.65-1.752.87-2.443h-7.72v-1.37h17.81v1.37h-8.432c-.27.673-.61 1.487-1.02 2.443h8.415v13.234h-1.426V37.48h-12.94v1.053h-1.425V25.28zm1.426 10.977h2.98v-9.755h-2.98v9.755zm4.313-7.293h4.315v-2.462h-4.314v2.462zm0 3.646h4.315v-2.462h-4.314v2.462zm0 3.647h4.315v-2.462h-4.314v2.462zm8.628-9.755h-2.98v9.755h2.98v-9.755zM147.266 22.78h4.665v12.162H150.6v-1.257h-2v1.925h-1.332V22.78zm3.332 1.297h-2v8.312h2v-8.313zm4.442 11.607c0 .89.433 1.332 1.297 1.332h5.57c.74 0 1.16-.406 1.26-1.22.11-.927.203-1.926.277-3 .148.062.61.24 1.388.535-.123 1.174-.24 2.15-.35 2.93-.2 1.367-.97 2.05-2.315 2.05h-6.108c-1.593 0-2.39-.774-2.39-2.33V21.69h9.775v9.144h-1.37v-.648h-7.035v5.498zm0-6.83h2.852v-5.83h-2.852v5.83zm7.035-5.832h-2.85v5.83h2.85v-5.83zM173.392 26.338h1.363v2.17h9.48v-4.072h-11.43v-1.173h12.76v7.386h-1.33v-.968h-9.48v4.612c0 .973.46 1.46 1.38 1.46h7.813c.908 0 1.458-.33 1.648-.983.19-.644.333-1.505.428-2.583.412.18.866.338 1.363.475-.148 1.1-.307 1.977-.476 2.63-.316 1.196-1.203 1.792-2.662 1.792h-8.432c-1.617 0-2.426-.834-2.426-2.504v-8.242zM188.07 35.326c2.196-.445 4.05-.857 5.562-1.236-.032.434-.048.824-.048 1.172-1.438.297-3.154.71-5.15 1.236l-.365-1.172zm1.933-3.678c1.035-.138 2.172-.307 3.408-.508-.062.444-.11.836-.143 1.174-1.3.18-2.874.428-4.723.744l-.285-1.172c.817-.846 1.652-1.91 2.503-3.194-1.025.063-1.817.12-2.378.167l-.3-1.08c1.15-1.53 2.218-3.417 3.2-5.657l1.205.476c-.982 1.89-1.976 3.586-2.98 5.086.672-.016 1.314-.03 1.927-.047.412-.672.826-1.396 1.244-2.172l1.174.586c-1.363 2.197-2.647 4.062-3.85 5.594zm4.216-7.56v-1.14h7.64v1.156c-.688.988-1.496 1.905-2.426 2.75 1.59.82 3.038 1.625 4.343 2.417l-.81 1.08c-1.352-.93-2.828-1.84-4.43-2.727-1.257 1.03-2.86 1.928-4.81 2.694-.21-.38-.465-.745-.76-1.094 3.074-1.004 5.552-2.715 7.433-5.135h-6.18zm-1.015 11.808h4.517V32.03h-3.44v-1.143h8.053v1.142h-3.36v3.866h4.438v1.14h-10.207v-1.14zM204.252 36.752c1.934-.322 3.492-.818 4.676-1.49-.903-.623-1.723-1.44-2.457-2.457l.834-.633h-1.23V25.53h5.564l.016-1.458h-6.832v-1.11h14.55v1.11h-6.497c0 .523-.003 1.01-.01 1.458h5.256v7.417h-1.204v-.775h-4.438c-.275 1.252-.71 2.217-1.308 2.893 2.118.775 5.07 1.158 8.852 1.148-.264.465-.48.89-.65 1.268-4.194-.114-7.277-.63-9.247-1.544-1.216.803-2.93 1.45-5.144 1.94-.21-.368-.454-.743-.728-1.124zm3.027-8.432h4.326c.01-.507.02-1.078.023-1.712h-4.352v1.712zm4.31 1.062h-4.31v1.712h4.176c.068-.518.113-1.09.135-1.712zm-1.6 5.15c.57-.49.99-1.278 1.26-2.36h-3.884c.73 1.014 1.604 1.8 2.624 2.36zm2.67-3.438h4.256v-1.712h-4.104c-.028.613-.078 1.183-.152 1.712zm4.256-4.486h-4.058c-.005.64-.013 1.21-.023 1.712h4.08v-1.712zM226.315 22.17l1.236.507c-.348.465-.702.91-1.06 1.332h8.098v1.124c-1.965 2.25-4.56 4.095-7.782 5.532h7.75v7.21h-1.268V36.85h-8.353v1.03h-1.27v-5.944c-.822.307-1.68.607-2.566.904-.233-.402-.477-.793-.73-1.174 2.366-.645 4.5-1.432 6.403-2.362-.655-.666-1.363-1.347-2.124-2.044l.95-.824c.888.792 1.7 1.527 2.44 2.203 1.86-1.025 3.477-2.203 4.85-3.535h-7.37c-1.193 1.3-2.557 2.5-4.09 3.598-.295-.39-.57-.734-.823-1.03 2.094-1.363 3.997-3.196 5.708-5.5zm6.974 9.637h-8.354v3.932h8.353v-3.933z"/></g><g fill="#fff"><path d="M340.488 32.814c.032.527.068.988.11 1.38-1.14.76-2.107 1.446-2.9 2.06l-.73-1.047c.36-.338.54-.797.54-1.38v-5.99h-1.934v-1.158h3.14v7.387c.59-.403 1.182-.82 1.774-1.253zm-3.123-11.13c.867.857 1.633 1.655 2.3 2.395l-1.11.918c-.73-.94-1.443-1.775-2.14-2.505l.95-.808zm2.347 5.042h5.12v-1.094h-4.06v-1h4.06v-1.06h-4.613v-1h4.612v-1.427h1.285v1.427h4.834v1h-4.833v1.06h4.422v1h-4.423v1.094h5.152v1h-11.56v-1zm2.632 10.004h-1.236v-8.04h8.814v6.168c0 1.14-.587 1.717-1.76 1.727-.624.012-1.422.018-2.395.018-.053-.34-.132-.746-.238-1.22.92.062 1.67.093 2.25.093.604 0 .904-.273.904-.824v-.793h-6.34v2.87zm6.34-7.023h-6.34V30.8h6.34v-1.093zm-6.34 3.17h6.34v-1.094h-6.34v1.094zM358.26 35.223l3.948.064 5.278-.127c-.115.35-.264.766-.443 1.252l-5.248.03-3.772-.093c-1.797-.022-3.054-.642-3.772-1.856-.433.402-1.067 1.11-1.9 2.125l-.65-1.317c.935-.904 1.61-1.55 2.028-1.94v-5.336h-1.887v-1.173h3.108v6.778c.65 1.05 1.753 1.58 3.312 1.59zm-4.58-13.697c.538.655 1.277 1.654 2.22 2.996l-1.127.793c-.856-1.342-1.56-2.378-2.108-3.107l1.014-.682zm4.406 12.826h-1.125v-8.925h3.82c-.792-.407-1.61-.814-2.456-1.22l.65-.762c.828.402 1.608.785 2.338 1.15l2.83-1.483h-7.436v-1.015h9.527v1.062l-3.828 1.99.54.276h3.4v7.166c0 1.205-.556 1.807-1.666 1.807-.55 0-1.147-.017-1.792-.048-.054-.402-.132-.81-.237-1.22.666.073 1.237.11 1.712.11.57 0 .856-.275.856-.824v-.777h-3.028v2.474h-1.125V31.64h-2.98v2.712zm0-6.326h2.98V26.44h-2.98v1.586zm0 2.6h2.98V29.04h-2.98v1.586zm7.134-4.185h-3.028v1.586h3.028V26.44zm-3.03 4.186h3.03V29.04h-3.03v1.586zM374.668 35.096l4.265.08 4.82-.158c-.18.422-.35.84-.51 1.252l-4.644.064-4.06-.096c-1.818-.02-3.154-.623-4.01-1.807-.297.233-.91.9-1.84 1.997l-.666-1.332c.82-.75 1.47-1.328 1.95-1.734v-5.445h-1.84v-1.14h3.06v6.872c.78.94 1.937 1.423 3.474 1.45zm-5.01-13.76c.697.803 1.46 1.786 2.283 2.95-.422.253-.797.506-1.124.76-.73-1.13-1.433-2.14-2.11-3.028l.952-.682zm3.06 2.965h6.802v-3.027h1.283V24.3h2.728v1.158h-2.727v6.58c0 1.362-.654 2.044-1.965 2.044-.688 0-1.49-.006-2.41-.016-.053-.412-.132-.89-.238-1.428.846.086 1.633.127 2.363.127.654 0 .977-.37.967-1.11V25.46h-6.8V24.3zm.634 3.044l.968-.713c1.15 1.47 2.034 2.627 2.647 3.473l-1.094.81c-.867-1.323-1.707-2.512-2.52-3.57zM401.396 25.958l-2.615 8.767h-1.616l-1.744-6.15c-.074-.265-.12-.545-.143-.84h-.03c-.017.22-.077.496-.184.823l-1.886 6.167h-1.57l-2.63-8.767h1.616l1.75 6.5c.054.195.094.463.12.8h.063c.02-.29.07-.565.15-.823l1.887-6.476h1.435l1.84 6.506c.052.19.095.46.126.81h.07c.012-.233.06-.503.144-.81l1.712-6.507h1.506zM414.215 25.958l-2.617 8.767h-1.617l-1.742-6.15c-.074-.265-.122-.545-.143-.84h-.032c-.016.22-.076.496-.182.823l-1.886 6.167h-1.57l-2.63-8.767h1.616l1.752 6.5c.053.195.092.463.12.8h.062c.02-.29.072-.565.15-.823l1.887-6.476h1.437l1.838 6.506c.053.19.096.46.127.81h.072c.01-.233.058-.503.143-.81l1.713-6.507h1.505zM427.03 25.958l-2.614 8.767H422.8l-1.745-6.15c-.074-.265-.12-.545-.143-.84h-.03c-.017.22-.077.496-.185.823l-1.885 6.167h-1.57l-2.63-8.767h1.616l1.75 6.5c.053.195.094.463.12.8h.063c.022-.29.07-.565.15-.823l1.888-6.476h1.434l1.84 6.506c.053.19.096.46.127.81h.07c.01-.233.058-.503.142-.81l1.713-6.507h1.506zM428.174 33.908c0-.285.098-.525.293-.723.195-.195.438-.293.73-.293.296 0 .54.1.737.297.195.198.293.437.293.718 0 .273-.098.512-.293.71-.197.196-.445.296-.746.296-.29 0-.533-.1-.725-.297-.193-.197-.29-.435-.29-.71zM434.078 34.383c0 1.422-.295 2.52-.883 3.303-.59.78-1.426 1.168-2.51 1.168-.4 0-.795-.092-1.18-.277v-1.402c.412.254.803.38 1.172.38 1.232 0 1.848-.98 1.848-2.94V25.96h1.553v8.423zm-1.734-11.517c0-.274.092-.506.277-.693.185-.188.417-.28.698-.28.285 0 .523.09.713.276s.286.416.286.696c0 .27-.096.497-.29.682-.192.185-.43.278-.708.278-.28 0-.514-.094-.697-.282-.184-.188-.276-.414-.276-.678zM436.67 22.866c0-.274.094-.506.28-.693s.42-.28.694-.28c.28 0 .518.09.71.276.192.184.29.416.29.696 0 .275-.098.503-.29.686-.192.182-.43.273-.71.273-.28 0-.512-.09-.697-.273-.183-.183-.277-.41-.277-.686zm.184 11.86v-8.768h1.553v8.767h-1.553zM440.69 32.83c.78.564 1.624.848 2.528.848 1.21 0 1.814-.396 1.814-1.19 0-.337-.133-.616-.396-.835s-.8-.48-1.61-.78c-.972-.392-1.603-.78-1.894-1.162-.29-.382-.436-.846-.436-1.39 0-.777.328-1.4.986-1.867s1.47-.702 2.43-.702c.746 0 1.438.13 2.078.39v1.498c-.656-.423-1.398-.634-2.23-.634-.495 0-.9.108-1.212.325s-.467.5-.467.855c0 .35.112.62.337.816.225.197.723.448 1.494.754.98.365 1.64.743 1.983 1.134.344.392.516.874.516 1.45 0 .803-.33 1.436-.99 1.898-.655.463-1.51.693-2.554.693-.91 0-1.703-.173-2.38-.517V32.83zM455.932 34.725h-1.56v-1.38h-.034c-.586 1.058-1.486 1.585-2.7 1.585-2.08 0-3.116-1.242-3.116-3.725v-5.248h1.537v5.017c0 1.78.68 2.672 2.044 2.672.676 0 1.223-.25 1.64-.75.42-.498.628-1.13.628-1.89v-5.05h1.56v8.77zM458.904 26.568c.873-.544 1.88-.817 3.02-.817 2.115 0 3.172 1.11 3.172 3.33v5.645h-1.54V33.37h-.038c-.607 1.04-1.504 1.56-2.688 1.56-.85 0-1.527-.228-2.03-.688-.5-.46-.75-1.08-.75-1.863 0-1.638.968-2.592 2.907-2.862l2.6-.364c0-1.432-.592-2.148-1.775-2.148-1.05 0-2.01.354-2.877 1.063v-1.502zm2.6 4.034c-.72.095-1.213.275-1.486.54-.27.265-.408.634-.408 1.11 0 .416.148.758.445 1.02.295.265.686.397 1.172.397.678 0 1.234-.24 1.674-.714.44-.477.657-1.072.657-1.792v-.84l-2.053.278zM475.082 34.725h-1.545V29.74c0-1.803-.658-2.704-1.973-2.704-.682 0-1.242.254-1.682.76-.438.508-.658 1.15-.658 1.927v5.002h-1.553v-8.767h1.554v1.45h.033c.66-1.104 1.62-1.657 2.877-1.657.96 0 1.693.31 2.195.925s.75 1.513.75 2.69v5.36zM485.127 34.725h-2.117l-3.75-4.226h-.03v4.225h-1.554V21.748h1.553v8.228h.03l3.56-4.02h1.997l-3.963 4.218 4.273 4.55zM493.654 30.737h-6.135c.026.935.282 1.658.77 2.167s1.163.766 2.036.766c.982 0 1.883-.314 2.703-.943v1.387c-.772.545-1.796.816-3.07.816-1.267 0-2.257-.4-2.968-1.205-.71-.803-1.066-1.918-1.066-3.344 0-1.34.39-2.448 1.17-3.32s1.748-1.308 2.904-1.308c1.146 0 2.043.37 2.688 1.106s.967 1.77.967 3.095v.784zm-1.552-1.244c-.006-.793-.193-1.406-.563-1.84-.372-.433-.892-.65-1.564-.65-.617 0-1.152.23-1.605.69-.45.46-.733 1.06-.85 1.8h4.582zM495.28 33.908c0-.285.097-.525.292-.723.197-.195.44-.293.73-.293.295 0 .54.1.736.297.195.198.293.437.293.718 0 .273-.097.512-.292.71s-.443.296-.744.296c-.29 0-.533-.1-.727-.297-.19-.197-.288-.435-.288-.71zM505.688 34.328c-.672.4-1.48.602-2.426.602-1.268 0-2.287-.406-3.06-1.22-.772-.814-1.157-1.868-1.157-3.163 0-1.438.416-2.596 1.248-3.476s1.947-1.32 3.342-1.32c.803 0 1.49.144 2.06.43v1.537c-.618-.454-1.304-.682-2.06-.682-.89 0-1.61.308-2.168.924-.56.614-.836 1.435-.836 2.46 0 1.01.263 1.8.79 2.37.525.57 1.234.856 2.127.856.756 0 1.47-.248 2.14-.746v1.428zM507.186 30.436c0-1.448.404-2.59 1.213-3.43.808-.836 1.903-1.255 3.288-1.255 1.316 0 2.348.404 3.096 1.21.748.806 1.12 1.92 1.12 3.34 0 1.385-.397 2.502-1.196 3.354-.797.852-1.867 1.275-3.21 1.275-1.31 0-2.356-.413-3.138-1.237-.784-.824-1.174-1.91-1.174-3.257zm1.585-.048c0 1.01.255 1.805.765 2.385.51.582 1.195.873 2.06.873.886 0 1.562-.285 2.026-.852.468-.568.7-1.385.7-2.446 0-1.067-.232-1.887-.7-2.457-.464-.57-1.14-.855-2.026-.855-.873 0-1.56.3-2.066.896-.505.598-.757 1.417-.757 2.458zM530.71 34.725h-1.552V29.69c0-.95-.148-1.63-.443-2.04-.297-.41-.783-.615-1.46-.615-.57 0-1.06.267-1.466.8s-.61 1.166-.61 1.896v4.995h-1.555v-5.192c0-1.665-.643-2.497-1.926-2.497-.593 0-1.083.254-1.472.76s-.582 1.156-.582 1.943v4.985h-1.555v-8.767h1.556v1.387h.03c.624-1.062 1.536-1.593 2.735-1.593.59 0 1.106.162 1.556.484s.76.758.936 1.308c.648-1.194 1.62-1.792 2.916-1.792 1.93 0 2.893 1.19 2.893 3.567v5.405zM543.332 35.207l3.756.08 5.613-.143c-.116.348-.265.766-.442 1.252l-5.264.016-3.822-.078c-1.742-.033-2.98-.646-3.71-1.84-.433.402-1.065 1.11-1.9 2.125l-.65-1.317c.935-.904 1.61-1.55 2.028-1.94v-5.336h-1.887v-1.173h3.107v6.762c.656 1.034 1.713 1.566 3.172 1.59zm-4.55-13.712c.802 1.004 1.542 2.003 2.218 2.996-.443.287-.834.55-1.172.794-.582-1.015-1.27-2.05-2.06-3.107l1.013-.682zm2.394 7.102h2.72c.015-.824.022-1.944.022-3.36h-1.998v-1.142h1.998v-2.79h1.268v2.79h3.14v-2.79h1.27v2.79h2.345v1.14h-2.345v3.362h2.965v1.142h-2.965v4.82h-1.268v-4.82h-3.258c-.314 2.155-1.226 3.76-2.737 4.82-.273-.308-.598-.63-.967-.97 1.295-.818 2.096-2.103 2.402-3.852h-2.592v-1.14zm3.994 0h3.156v-3.36h-3.14c0 1.817-.004 2.937-.016 3.36zM553.21 30.72c1.636-1.34 3.126-3.228 4.47-5.66l1.11.683c-.546.94-1.122 1.82-1.73 2.64v8.395h-1.316v-6.762c-.633.72-1.295 1.382-1.98 1.99-.17-.444-.356-.873-.555-1.285zm.077-5.024c1.682-1.3 3.033-2.812 4.06-4.534l1.142.698c-1.228 1.88-2.75 3.567-4.567 5.057-.193-.402-.403-.81-.636-1.22zm5.66 1.474h10.035v1.19h-3.076v6.2c0 1.308-.66 1.964-1.98 1.964-.89 0-1.793-.006-2.71-.016-.065-.424-.144-.898-.24-1.428.825.086 1.655.127 2.49.127.73 0 1.093-.36 1.093-1.078v-5.77h-5.612v-1.19zm.92-4.788h8.227v1.19h-8.227v-1.19zM575.102 31.244c.03.486.078.957.143 1.41-.783.55-1.645 1.205-2.584 1.967-.21.17-.476.42-.792.745l-.855-.95c.38-.4.57-.92.57-1.554V27.79h-2.03V26.63h3.267v6.374c.76-.56 1.52-1.147 2.282-1.76zm-3.948-9.765c.865.855 1.68 1.717 2.44 2.583l-1.108.935c-.7-.92-1.465-1.813-2.3-2.68l.968-.84zm3.328 2.488h5.145c-.328-.745-.727-1.5-1.197-2.267l1.11-.522c.497.77.92 1.5 1.27 2.188l-1.144.603h5.486v1.14h-7.07v2.473h5.945c-.117 3.192-.232 5.396-.35 6.61-.127 1.448-.867 2.167-2.22 2.157-.782 0-1.638-.02-2.567-.064-.074-.486-.158-.95-.254-1.395.973.116 1.855.175 2.646.175.688 0 1.074-.396 1.158-1.19.115-1.245.217-2.973.3-5.182h-4.675c-.05 1.797-.254 3.218-.62 4.265-.454 1.342-1.325 2.658-2.614 3.947-.358-.39-.696-.703-1.015-.936 1.227-1.196 2.04-2.4 2.44-3.616.35-.972.524-2.494.524-4.565v-2.68h-2.3v-1.142zM586.516 24.364h1.236v12.43h-1.236v-12.43zm.793-2.33l.9-.81c.583.55 1.35 1.322 2.3 2.315l-1.03.903c-.91-1.057-1.632-1.86-2.17-2.41zm2.836 4.185h6.72v6.34h-5.58v.903h-1.14V26.22zm5.58 1.172h-4.438v3.995h4.44v-3.995zm-4.25-3.963v-1.19h9.07v12.254c0 1.533-.692 2.3-2.077 2.3-.9 0-1.767-.01-2.6-.032-.044-.318-.128-.746-.255-1.285.877.064 1.723.096 2.537.096.77 0 1.156-.412 1.156-1.236V23.43h-7.83z"/></g><path fill="#E7E7E6" d="M247.135 25.948h7.104v13.98h2.072l-.444 2.117h-5.518V27.922h-3.216v-1.974zm7.104-7.967l-.014 5.26h-3.876v-5.26h3.89zm1.683 7.966h5.15V17.93h3.88v8.017h4.94l-.445 1.973h-4.496v14.15h-3.878V27.92h-5.15v-1.974zM272.626 19.953h4.3v-1.998h3.91v1.998h8.206v-1.998h3.943v1.998h3.73l-.444 1.973h-3.284V23.9h-3.943v-1.974h-8.205l-.027 1.973h-3.91l.027-1.974h-4.3v-1.973zm.443 9.894h11.22l-.445 1.943h-3.008v7.81c0 1.324-1.184 2.42-2.507 2.42h-2.624v-1.81h.078c.356 0 1.148-.152 1.148-.482V31.79h-3.863v-1.943zm.674-4.037h9.426l-.444 2.034h-8.98V25.81zm11.752 4.037h11.218l-.443 1.943-3.284.023v7.81c0 1.325-.88 2.396-2.23 2.396h-2.62v-1.81h.1c.356 0 .863-.153.863-.483V31.79h-3.603v-1.943zm.7-4.037h9.398l-.443 2.034h-8.954V25.81z"/><path fill="#25AE5F" d="M302.6 41.993V35.48h19.545v4.095c0 1.323-1.07 2.418-2.42 2.418H302.6zm17.628-20.068H304.56v1.97l-3.89.003v-3.947h9.535v-1.998h3.888v1.998h10.023l-.012 3.946h-3.877v-1.974zm-13.6 1.772h3.91l-1 .986 12.634.01v2.03l-6.862 3.323 4.41 1.914 4.397-.026-.888 2.413h-4.843l-5.794-2.622-5.46 2.658h-6.463v-2.227h5.805l3.23-1.666-4.175-1.858-.982.946-3.878.024 5.957-5.904zm-.13 16.36h10.835c.535 0 .968-.433.968-.967v-1.673H306.5v2.64zm1.088-13.463l4.536 2.038 4.594-2.038h-9.13z"/><path fill="none" stroke="#fff" stroke-width=".25" d="M316.558 27.807M316.558 29.804"/><path fill="#E7E7E6" d="M273.27 33.754h1.922v5.76l-1.92.42zM282.256 33.72h1.92v6.178l-1.92-.385zM285.77 33.72h1.922v5.793l-1.93.385zM294.205 33.72h1.922v6.178l-1.922-.385z"/><path fill="none" d="M310.537 23.9l-5.99 5.88"/><path fill="none" stroke="#fff" stroke-width=".25" d="M272.655 26.795M269.55 28.833"/><path fill="none" stroke="#fff" d="M318.6 31.725M307.353 26.72"/></svg>